<?xml version="1.0" standalone="no"?>
<!DOCTYPE svg PUBLIC "-//W3C//DTD SVG 20010904//EN"
 "http://www.w3.org/TR/2001/REC-SVG-20010904/DTD/svg10.dtd">
<svg version="1.0" xmlns="http://www.w3.org/2000/svg"
 width="94.000000pt" height="83.000000pt" viewBox="0 0 94.000000 83.000000"
 preserveAspectRatio="xMidYMid meet">

<g transform="translate(0.000000,83.000000) scale(0.100000,-0.100000)"
fill="#000000" stroke="none">
<path d="M330 760 l0 -70 -38 -19 c-43 -22 -102 -84 -128 -133 -25 -49 -30
-155 -10 -215 20 -61 73 -124 132 -159 l44 -26 0 -69 0 -69 135 0 135 0 0 75
c0 41 4 75 9 75 22 0 105 77 131 123 16 29 30 55 30 60 0 4 -40 7 -88 7 -78 0
-91 -3 -108 -21 -70 -77 -192 -61 -242 32 -39 74 -18 145 58 197 56 38 144 23
187 -32 20 -24 26 -26 108 -26 85 0 86 0 79 23 -18 58 -86 135 -141 160 -21 9
-23 17 -23 84 l0 73 -135 0 -135 0 0 -70z"/>
</g>
</svg>
